Coordinates
version=1
nRows=18
nColumns=22
inDegrees=yes

Units are S.I. units (second, meters, Newtons, ...)
If the header above contains a line with 'inDegrees', this indicates whether rotational values are in degrees (yes) or radians (no).

endheader
time	pelvis_tilt	pelvis_list	pelvis_rotation	pelvis_tx	pelvis_ty	pelvis_tz	hip_flexion_r	hip_adduction_r	hip_rotation_r	knee_angle_r	ankle_angle_r	subtalar_angle_r	hip_flexion_l	hip_adduction_l	hip_rotation_l	knee_angle_l	ankle_angle_l	subtalar_angle_l	lumbar_extension	lumbar_bending	lumbar_rotation
      4.60000000	     -3.31270623	     -4.28764892	    332.52830431	     -0.49134467	      0.95356078	      0.69486271	     26.20038590	     -2.32236962	      1.87584445	    -12.64959309	      6.15965851	     11.06988338	    -12.02072183	     -1.55957687	     38.94380801	    -14.80526928	     14.60933802	     -9.47318163	     -1.07992641	      2.93707167	    -10.46991533
      4.61000000	     -3.10330217	     -4.21604497	    333.34685527	     -0.48532105	      0.95280780	      0.70104977	     25.95900396	     -2.32484046	      2.68252096	    -12.02330017	      6.25282809	     11.26565842	    -12.54696163	     -1.75210426	     39.43376525	    -14.92795461	     14.51294219	     -9.21786449	     -1.13803098	      2.81620449	    -10.40292829
      4.62000000	     -2.88612280	     -4.14210839	    334.15401177	     -0.47912448	      0.95199819	      0.70731898	     25.77600195	     -2.32305570	      3.43407695	    -11.73360783	      6.19679205	     11.37282130	    -13.07900300	     -1.94026953	     39.91894131	    -15.07803637	     14.39145822	     -8.96621310	     -1.19274797	      2.69646255	    -10.32533398
      4.63000000	     -2.68274262	     -4.06343488	    334.94600521	     -0.47281734	      0.95112018	      0.71367614	     25.68967091	     -2.30111290	      4.12315965	    -11.80066183	      5.91111509	     11.40366386	    -13.58289011	     -2.12555560	     40.39106647	    -15.27819507	     14.22653283	     -8.75536248	     -1.22732563	      2.58057909	    -10.23890906
      4.64000000	     -2.44821205	     -4.04939409	    335.71863737	     -0.46636073	      0.95027589	      0.72018735	     25.60380373	     -2.20480992	      4.77881450	    -12.19303421	      5.43332718	     11.34702488	    -14.15575804	     -2.37198910	     40.79898865	    -15.48100607	     14.06954174	     -8.42613543	     -1.31259838	      2.51994450	    -10.19223115
      4.65000000	     -2.26566017	     -4.06774655	    336.47675624	     -0.45984164	      0.94937771	      0.72676459	     25.61839189	     -2.03564280	      5.35570146	    -12.87734195	      4.61494951	     11.11634175	    -14.65298696	     -2.65220965	     41.14614026	    -15.78175228	     13.93611982	     -7.99320116	     -1.35554791	      2.52184548	    -10.12207999
      4.66000000	     -2.10654471	     -4.10180711	    337.21120747	     -0.45325769	      0.94847882	      0.73341939	     25.72764059	     -1.81999562	      5.87233541	    -13.85734315	      3.56362947	     10.86501075	    -15.11576958	     -2.94658092	     41.44276794	    -16.13076774	     13.72593569	     -7.61075436	     -1.37563381	      2.55355110	    -10.06625770
      4.67000000	     -1.99673600	     -4.18397442	    337.92499290	     -0.44661838	      0.94759754	      0.74011716	     25.93091049	     -1.53139351	      6.26819683	    -15.07839788	      2.31546388	     10.59779133	    -15.50784356	     -3.27963379	     41.64485645	    -16.57484123	     13.49334624	     -7.19076627	     -1.35985764	      2.66381420	    -10.02307093
      4.68000000	     -1.91085543	     -4.30703922	    338.61102356	     -0.43991019	      0.94680339	      0.74683544	     26.19916608	     -1.19767349	      6.51406004	    -16.49440006	      1.01742642	     10.37828558	    -15.85779773	     -3.63237298	     41.75773567	    -17.09419249	     13.19859695	     -6.72934194	     -1.32961415	      2.83545754	     -9.98969032
      4.69000000	     -1.85324413	     -4.46864920	    339.27025437	     -0.43311864	      0.94614960	      0.75354199	     26.49907289	     -0.83641968	      6.60087444	    -18.01049120	     -0.21696115	     10.27604232	    -16.15711997	     -4.00141150	     41.77260589	    -17.68265556	     12.78322174	     -6.27271250	     -1.27550685	      3.07096397	     -9.98870029
      4.70000000	     -1.78498978	     -4.63611028	    339.88177248	     -0.42626437	      0.94565482	      0.76019015	     26.82579541	     -0.50053572	      6.46056576	    -19.63299296	     -1.20405543	     10.09478320	    -16.41964405	     -4.32069798	     41.66731960	    -18.36486419	     12.34124479	     -5.47165535	     -1.23327162	      3.32450086	     -9.92978039
      4.71000000	     -1.73716545	     -4.82839250	    340.45991234	     -0.41934655	      0.94537974	      0.76677501	     27.10802169	     -0.17407638	      6.17437092	    -21.18827156	     -1.94655839	     10.04195928	    -16.61899287	     -4.63262049	     41.42246212	    -19.12136843	     11.73802869	     -4.63473289	     -1.17155752	      3.62671926	     -9.90392790
      4.72000000	     -1.69414616	     -5.01965282	    340.99855510	     -0.41242173	      0.94532921	      0.77327508	     27.33114625	      0.11587261	      5.74701030	    -22.64895326	     -2.37838271	     10.00526927	    -16.74613109	     -4.89976788	     41.03143339	    -19.96977426	     11.04075301	     -3.65220188	     -1.10618804	      3.94153886	     -9.86880794
      4.73000000	     -1.66736000	     -5.19268935	    341.50374871	     -0.40551039	      0.94551246	      0.77964907	     27.48433355	      0.35889983	      5.21924543	    -23.96389411	     -2.50418868	      9.94148781	    -16.77311893	     -5.11247664	     40.49809301	    -20.90940608	     10.23473180	     -2.50539314	     -1.01974154	      4.25705533	     -9.82668000
      4.74000000	     -1.64863138	     -5.33488755	    341.98362436	     -0.39867710	      0.94593639	      0.78587119	     27.55020616	      0.54995148	      4.63186300	    -25.10526084	     -2.36100376	      9.82981393	    -16.67626964	     -5.25220748	     39.81366972	    -21.97525841	      9.35927153	     -1.20233961	     -0.92450714	      4.55184322	     -9.77416866
      4.75000000	     -1.63640274	     -5.42387507	    342.44228934	     -0.39196805	      0.94659561	      0.79191661	     27.53181078	      0.68032991	      4.04229358	    -26.06594363	     -1.99938656	      9.66264951	    -16.43123734	     -5.29769999	     38.98258960	    -23.18365564	      8.43307708	      0.26513399	     -0.82075876	      4.79966120	     -9.71843456
      4.76000000	     -1.63382457	     -5.45684289	    342.89654987	     -0.38541073	      0.94748337	      0.79774763	     27.42271150	      0.75010399	      3.46934138	    -26.82536403	     -1.48470186	      9.45625450	    -16.01318492	     -5.24878802	     38.03294991	    -24.56112578	      7.47503560	      1.82923810	     -0.70712368	      4.99556338	     -9.64512490
      4.77000000	     -1.65197420	     -5.43135190	    343.35785130	     -0.37906130	      0.94855018	      0.80334471	     27.25892895	      0.76496365	      2.92811488	    -27.41723760	     -0.88932438	      9.22964701	    -15.38911609	     -5.11238313	     36.96817805	    -26.12983097	      6.53099131	      3.41150018	     -0.57726876	      5.13892806	     -9.59509490
